<svg xmlns="http://www.w3.org/2000/svg" version="1.1" xmlns:xlink="http://www.w3.org/1999/xlink" xmlns:svgjs="http://svgjs.dev/svgjs" width="564" height="564"><svg width="564" height="564" viewBox="0 0 564 564" fill="none" xmlns="http://www.w3.org/2000/svg">
<path d="M126.788 324.291C127.901 320.233 128.923 316.161 129.956 312.092C128.637 315.605 127.415 319.148 126.326 322.728C124.348 329.234 124.649 332.093 126.788 324.291Z" fill="#333536"></path>
<path d="M148.375 170.795C161.088 168.03 163.057 174.746 159.119 202.005C155.968 230.844 144.408 264.158 134.753 294.704C131.667 304.468 129.493 314.424 126.788 324.291C124.649 332.093 124.348 329.234 126.326 322.728C131.813 304.686 140.683 287.586 148.375 270.444C161.032 242.236 174.221 214.059 188.663 186.72C194.088 176.45 198.729 165.945 203.901 155.569C205.962 151.434 209.682 145.16 211.404 153.022C218.603 185.876 224.28 219.209 234.261 251.394C236.991 260.195 239.607 269.158 242.977 277.739C243.258 278.455 244.855 283.309 245.805 280.808C269.342 218.83 293.793 157.29 315.645 94.658C320.708 80.1489 324.877 65.397 329.96 50.8853C330.785 48.5286 331.691 41.1581 334 40" stroke="#FFFB00" stroke-width="22" stroke-linecap="round"></path>
<path d="M305.544 258.643C301.834 255.758 302.827 274.586 302.906 276.817C303.611 296.54 350.547 266.533 354.349 263.04C361.961 256.047 371.373 245.401 367.393 234.314C364.157 225.299 355.545 221.864 347.021 219.072C338.24 216.195 332.769 216.909 326.649 223.029" stroke="#FFFB00" stroke-width="22" stroke-linecap="round"></path>
<path d="M209.391 300.077C159.398 275.198 160.526 408.603 164.962 433.395C174.281 485.483 267.455 499.305 299 461.629" stroke="#FF1A1A" stroke-width="22" stroke-linecap="round"></path>
<path d="M231 426.101C231 421.714 232.148 417.723 233.44 413.541C238.631 396.743 244.71 379.9 250.944 363.468C251.971 360.76 267.225 309.479 275.768 311.035C281.511 312.081 284.785 326.293 286.539 330.339C296.292 352.824 304.415 375.639 312.458 398.788C319.656 419.508 328.694 439.737 334 461" stroke="#FF1A1A" stroke-width="22" stroke-linecap="round"></path>
<path d="M267 391C267 384.375 292.806 387.978 298.043 387.978C312.362 387.978 326.681 387.978 341 387.978" stroke="#FF1A1A" stroke-width="22" stroke-linecap="round"></path>
<path d="M323 341C325.904 351.713 331.626 360.957 335.71 371.213C343.157 389.911 350.175 408.954 357.091 427.862C363.774 446.132 368.316 464.321 373 483" stroke="#FF1A1A" stroke-width="22" stroke-linecap="round"></path>
<path d="M319 329.547C355.506 329.547 401.005 324.796 434.093 343.287C441.082 347.193 451.803 350.922 452.938 360.081C454.049 369.039 439.872 372.448 433.42 374.414C402.542 383.825 366.133 382.98 334.144 382.98" stroke="#FF1A1A" stroke-width="22" stroke-linecap="round"></path>
</svg><style>@media (prefers-color-scheme: light) { :root { filter: none; } }
@media (prefers-color-scheme: dark) { :root { filter: none; } }
</style></svg>