<svg version="1.0" xmlns="http://www.w3.org/2000/svg" viewBox="154 47 492 505" xml:space="preserve">
  <path d="M399.6 48.5h.4c134.9 0 244.3 109.4 244.3 244.3v13.6c0 134.9-109.4 244.3-244.3 244.3h-.4c-134.9 0-244.3-109.4-244.3-244.3v-13.6c0-134.9 109.4-244.3 244.3-244.3" fill="#d4d4d4"/>
  <path d="M504.3 237.5c-.8.9-1.8 1.6-2.9 2-1.1.5-2.3.7-3.5.7H271.4c-8 0-12.1-10-6.5-16l37.2-39.5q1.2-1.35 3-2.1c1.1-.5 2.3-.7 3.5-.7H536c8.1 0 12.1 10.1 6.4 16.1zm0 176.6c-1.7 1.7-4 2.7-6.4 2.7H271.4c-8 0-12.1-9.8-6.5-15.6l37.2-38.6c.8-.9 1.9-1.6 3-2 1.1-.5 2.3-.7 3.5-.7H536c8.1 0 12.1 9.9 6.4 15.7zm0-140.5c-1.7-1.7-4-2.7-6.4-2.7H271.4c-8 0-12.1 9.8-6.5 15.6l37.2 38.6c.8.9 1.9 1.6 3 2 1.1.5 2.3.7 3.5.7H536c8.1 0 12.1-9.9 6.4-15.7z" fill="#333536"/>
</svg>
